<svg width="46" height="45" viewBox="0 0 46 45" fill="none" xmlns="http://www.w3.org/2000/svg">
<path d="M6.125 11.25H9.875H39.875" stroke="white" stroke-width="2.5" stroke-linecap="round" stroke-linejoin="round"/>
<path d="M36.125 11.25V37.5C36.125 38.4946 35.7299 39.4484 35.0266 40.1516C34.3234 40.8549 33.3696 41.25 32.375 41.25H13.625C12.6304 41.25 11.6766 40.8549 10.9733 40.1516C10.2701 39.4484 9.875 38.4946 9.875 37.5V11.25M15.5 11.25V7.5C15.5 6.50544 15.8951 5.55161 16.5984 4.84835C17.3016 4.14509 18.2554 3.75 19.25 3.75H26.75C27.7446 3.75 28.6984 4.14509 29.4016 4.84835C30.1049 5.55161 30.5 6.50544 30.5 7.5V11.25" stroke="white" stroke-width="2.5" stroke-linecap="round" stroke-linejoin="round"/>
<path d="M19.25 20.625V31.875" stroke="white" stroke-width="2.5" stroke-linecap="round" stroke-linejoin="round"/>
<path d="M26.75 20.625V31.875" stroke="white" stroke-width="2.5" stroke-linecap="round" stroke-linejoin="round"/>
</svg>
